{
  "accessors": [
    {
      "bufferView": 2,
      "componentType": 5126,
      "count": 75,
      "max": [
        1.4919350147247314,
        3.550503969192505,
        4.439328193664551
      ],
      "min": [
        0.5080649852752686,
        3.287761926651001,
        4.203752040863037
      ],
      "type": "VEC3"
    },
    {
      "bufferView": 2,
      "byteOffset": 900,
      "componentType": 5126,
      "count": 75,
      "max": [
        0.8577136993408203,
        0.9888471364974976,
        0.5880831480026245
      ],
      "min": [
        -0.8577148914337158,
        -0.9746145009994507,
        0.1489340215921402
      ],
      "type": "VEC3"
    },
    {
      "bufferView": 3,
      "componentType": 5126,
      "count": 75,
      "max": [
        1.0,
        0.9928286671638489,
        0.15343913435935974,
        1.0
      ],
      "min": [
        -1.0,
        -0.9928286671638489,
        -0.15343856811523438,
        1.0
      ],
      "type": "VEC4"
    },
    {
      "bufferView": 1,
      "componentType": 5126,
      "count": 75,
      "max": [
        0.15428799390792847,
        0.6366819739341736
      ],
      "min": [
        0.0039059999398887157,
        0.6155200004577637
      ],
      "type": "VEC2"
    },
    {
      "bufferView": 0,
      "componentType": 5125,
      "count": 288,
      "type": "SCALAR"
    },
    {
      "bufferView": 2,
      "byteOffset": 1800,
      "componentType": 5126,
      "count": 19748,
      "max": [
        2.7403109073638916,
        4.1489691734313965,
        4.512547969818115
      ],
      "min": [
        -0.7403110265731812,
        0.7517560124397278,
        0.001998000079765916
      ],
      "type": "VEC3"
    },
    {
      "bufferView": 2,
      "byteOffset": 238776,
      "componentType": 5126,
      "count": 19748,
      "max": [
        1.0,
        0.9999946355819702,
        1.0
      ],
      "min": [
        -1.0,
        -1.0,
        -1.0
      ],
      "type": "VEC3"
    },
    {
      "bufferView": 3,
      "byteOffset": 1200,
      "componentType": 5126,
      "count": 19748,
      "max": [
        1.0,
        1.0,
        1.0,
        1.0
      ],
      "min": [
        -1.0,
        -1.0,
        -1.0,
        -1.0
      ],
      "type": "VEC4"
    },
    {
      "bufferView": 1,
      "byteOffset": 600,
      "componentType": 5126,
      "count": 19748,
      "max": [
        0.996068000793457,
        0.9960939884185791
      ],
      "min": [
        0.0039059999398887157,
        0.0039059999398887157
      ],
      "type": "VEC2"
    },
    {
      "bufferView": 0,
      "byteOffset": 1152,
      "componentType": 5125,
      "count": 97632,
      "type": "SCALAR"
    }
  ],
  "asset": {
    "extras": {
      "author": "Maxmalow (https://sketchfab.com/Maxmalow)",
      "license": "CC-BY-4.0 (http://creativecommons.org/licenses/by/4.0/)",
      "source": "https://sketchfab.com/3d-models/john-117-5ccb57daea814d089e26009a6b7222f5",
      "title": "John 117"
    },
    "generator": "Sketchfab-12.65.0",
    "version": "2.0"
  },
  "bufferViews": [
    {
      "buffer": 0,
      "byteLength": 391680,
      "name": "floatBufferViews",
      "target": 34963
    },
    {
      "buffer": 0,
      "byteLength": 158584,
      "byteOffset": 391680,
      "byteStride": 8,
      "name": "floatBufferViews",
      "target": 34962
    },
    {
      "buffer": 0,
      "byteLength": 475752,
      "byteOffset": 550264,
      "byteStride": 12,
      "name": "floatBufferViews",
      "target": 34962
    },
    {
      "buffer": 0,
      "byteLength": 317168,
      "byteOffset": 1026016,
      "byteStride": 16,
      "name": "floatBufferViews",
      "target": 34962
    }
  ],
  "buffers": [
    {
      "byteLength": 1343184,
      "uri": "scene.bin"
    }
  ],
  "images": [
    {
      "uri": "textures/aiStandardSurface6SG_baseColor.jpeg"
    },
    {
      "uri": "textures/aiStandardSurface6SG_metallicRoughness.png"
    },
    {
      "uri": "textures/aiStandardSurface6SG_normal.png"
    }
  ],
  "materials": [
    {
      "doubleSided": true,
      "name": "aiStandardSurface6SG",
      "normalTexture": {
        "index": 2
      },
      "occlusionTexture": {
        "index": 1
      },
      "pbrMetallicRoughness": {
        "baseColorTexture": {
          "index": 0
        },
        "metallicRoughnessTexture": {
          "index": 1
        }
      }
    }
  ],
  "meshes": [
    {
      "name": "defaultMaterial",
      "primitives": [
        {
          "attributes": {
            "NORMAL": 1,
            "POSITION": 0,
            "TANGENT": 2,
            "TEXCOORD_0": 3
          },
          "indices": 4,
          "material": 0,
          "mode": 4
        }
      ]
    },
    {
      "name": "defaultMaterial",
      "primitives": [
        {
          "attributes": {
            "NORMAL": 6,
            "POSITION": 5,
            "TANGENT": 7,
            "TEXCOORD_0": 8
          },
          "indices": 9,
          "material": 0,
          "mode": 4
        }
      ]
    }
  ],
  "nodes": [
    {
      "children": [
        1
      ],
      "matrix": [
        1.0,
        0.0,
        0.0,
        0.0,
        0.0,
        2.220446049250313e-16,
        -1.0,
        0.0,
        0.0,
        1.0,
        2.220446049250313e-16,
        0.0,
        0.0,
        0.0,
        0.0,
        1.0
      ],
      "name": "Sketchfab_model"
    },
    {
      "children": [
        2,
        4
      ],
      "matrix": [
        1.0,
        0.0,
        0.0,
        0.0,
        0.0,
        -4.371139006309477e-08,
        0.999999999999999,
        0.0,
        0.0,
        -0.999999999999999,
        -4.371139006309477e-08,
        0.0,
        0.0,
        0.0,
        0.0,
        1.0
      ],
      "name": "Collada visual scene group"
    },
    {
      "children": [
        3
      ],
      "name": "textureEditorIsolateSelectSet"
    },
    {
      "mesh": 0,
      "name": "defaultMaterial"
    },
    {
      "children": [
        5
      ],
      "name": "polySurface395"
    },
    {
      "mesh": 1,
      "name": "defaultMaterial"
    }
  ],
  "samplers": [
    {
      "magFilter": 9729,
      "minFilter": 9987,
      "wrapS": 10497,
      "wrapT": 10497
    }
  ],
  "scene": 0,
  "scenes": [
    {
      "name": "Sketchfab_Scene",
      "nodes": [
        0
      ]
    }
  ],
  "textures": [
    {
      "sampler": 0,
      "source": 0
    },
    {
      "sampler": 0,
      "source": 1
    },
    {
      "sampler": 0,
      "source": 2
    }
  ]
}
