{
	"asset":{
		"generator":"Khronos glTF Blender I/O v4.1.62",
		"version":"2.0"
	},
	"scene":0,
	"scenes":[
		{
			"name":"Scene",
			"nodes":[
				16
			]
		}
	],
	"nodes":[
		{
			"mesh":0,
			"name":"defaultMaterial",
			"translation":[
				-1.426544189453125,
				8.529264450073242,
				-11.8307466506958
			]
		},
		{
			"children":[
				0
			],
			"name":"blade_low"
		},
		{
			"mesh":1,
			"name":"defaultMaterial.002",
			"translation":[
				0.01739644631743431,
				7.72874641418457,
				10.55074691772461
			]
		},
		{
			"children":[
				2
			],
			"name":"guard_low",
			"scale":[
				1.0279860496520996,
				1.0279860496520996,
				2.2194480895996094
			]
		},
		{
			"mesh":2,
			"name":"defaultMaterial.001",
			"translation":[
				0.0556488037109375,
				7.858335494995117,
				21.94346046447754
			]
		},
		{
			"children":[
				4
			],
			"name":"guardtip_low"
		},
		{
			"mesh":3,
			"name":"defaultMaterial.006",
			"translation":[
				-0.1058197021484375,
				8.411527633666992,
				30.906333923339844
			]
		},
		{
			"children":[
				6
			],
			"name":"handle_low"
		},
		{
			"mesh":4,
			"name":"defaultMaterial.005",
			"translation":[
				0.4219260513782501,
				7.060067653656006,
				23.682788848876953
			]
		},
		{
			"children":[
				8
			],
			"name":"ornament_low",
			"rotation":[
				-0.012150299735367298,
				-0.012150297872722149,
				0,
				0.9998523592948914
			]
		},
		{
			"mesh":5,
			"name":"defaultMaterial.003",
			"translation":[
				-0.350921630859375,
				9.256475448608398,
				44.60806655883789
			]
		},
		{
			"children":[
				10
			],
			"name":"pummle_low"
		},
		{
			"mesh":6,
			"name":"defaultMaterial.004",
			"translation":[
				0.3204803466796875,
				-0.055000290274620056,
				-3.4635002613067627
			]
		},
		{
			"children":[
				12
			],
			"name":"scabbard_low"
		},
		{
			"children":[
				1,
				3,
				5,
				7,
				9,
				11,
				13
			],
			"name":"KATANA_LOW"
		},
		{
			"children":[
				14
			],
			"name":"Collada visual scene group",
			"rotation":[
				0.70710688829422,
				0,
				0,
				0.7071066498756409
			]
		},
		{
			"children":[
				15
			],
			"name":"Sketchfab_model",
			"rotation":[
				-0.70710688829422,
				0,
				0,
				0.7071066498756409
			]
		}
	],
	"materials":[
		{
			"doubleSided":true,
			"name":"lambert14",
			"normalTexture":{
				"index":0
			},
			"occlusionTexture":{
				"index":1
			},
			"pbrMetallicRoughness":{
				"baseColorTexture":{
					"index":2
				},
				"metallicRoughnessTexture":{
					"index":1
				}
			}
		}
	],
	"meshes":[
		{
			"name":"defaultMaterial",
			"primitives":[
				{
					"attributes":{
						"POSITION":0,
						"NORMAL":1,
						"TEXCOORD_0":2
					},
					"indices":3,
					"material":0
				}
			]
		},
		{
			"name":"defaultMaterial.002",
			"primitives":[
				{
					"attributes":{
						"POSITION":4,
						"NORMAL":5,
						"TEXCOORD_0":6
					},
					"indices":7,
					"material":0
				}
			]
		},
		{
			"name":"defaultMaterial.001",
			"primitives":[
				{
					"attributes":{
						"POSITION":8,
						"NORMAL":9,
						"TEXCOORD_0":10
					},
					"indices":11,
					"material":0
				}
			]
		},
		{
			"name":"defaultMaterial.006",
			"primitives":[
				{
					"attributes":{
						"POSITION":12,
						"NORMAL":13,
						"TEXCOORD_0":14
					},
					"indices":15,
					"material":0
				}
			]
		},
		{
			"name":"defaultMaterial.005",
			"primitives":[
				{
					"attributes":{
						"POSITION":16,
						"NORMAL":17,
						"TEXCOORD_0":18
					},
					"indices":19,
					"material":0
				}
			]
		},
		{
			"name":"defaultMaterial.003",
			"primitives":[
				{
					"attributes":{
						"POSITION":20,
						"NORMAL":21,
						"TEXCOORD_0":22
					},
					"indices":23,
					"material":0
				}
			]
		},
		{
			"name":"defaultMaterial.004",
			"primitives":[
				{
					"attributes":{
						"POSITION":24,
						"NORMAL":25,
						"TEXCOORD_0":26
					},
					"indices":27,
					"material":0
				}
			]
		}
	],
	"textures":[
		{
			"sampler":0,
			"source":0
		},
		{
			"sampler":0,
			"source":1
		},
		{
			"sampler":0,
			"source":2
		}
	],
	"images":[
		{
			"mimeType":"image/png",
			"name":"lambert14_normal",
			"uri":"lambert14_normal.png"
		},
		{
			"mimeType":"image/png",
			"name":"lambert14_metallicRoughness",
			"uri":"lambert14_metallicRoughness.png"
		},
		{
			"mimeType":"image/jpeg",
			"name":"lambert14_baseColor",
			"uri":"lambert14_baseColor.jpg"
		}
	],
	"accessors":[
		{
			"bufferView":0,
			"componentType":5126,
			"count":237,
			"max":[
				2.13153076171875,
				2.3626708984375,
				33.12017822265625
			],
			"min":[
				-2.773529052734375,
				-1.8434677124023438,
				-33.807525634765625
			],
			"type":"VEC3"
		},
		{
			"bufferView":1,
			"componentType":5126,
			"count":237,
			"type":"VEC3"
		},
		{
			"bufferView":2,
			"componentType":5126,
			"count":237,
			"type":"VEC2"
		},
		{
			"bufferView":3,
			"componentType":5123,
			"count":708,
			"type":"SCALAR"
		},
		{
			"bufferView":4,
			"componentType":5126,
			"count":203,
			"max":[
				1.69049072265625,
				1.890380859375,
				0.367950439453125
			],
			"min":[
				-1.6949462890625,
				-1.9140853881835938,
				-0.3670501708984375
			],
			"type":"VEC3"
		},
		{
			"bufferView":5,
			"componentType":5126,
			"count":203,
			"type":"VEC3"
		},
		{
			"bufferView":6,
			"componentType":5126,
			"count":203,
			"type":"VEC2"
		},
		{
			"bufferView":7,
			"componentType":5123,
			"count":468,
			"type":"SCALAR"
		},
		{
			"bufferView":8,
			"componentType":5126,
			"count":202,
			"max":[
				0.7677001953125,
				1.4424819946289062,
				1.055145263671875
			],
			"min":[
				-1.1971435546875,
				-0.9999771118164062,
				-0.864959716796875
			],
			"type":"VEC3"
		},
		{
			"bufferView":9,
			"componentType":5126,
			"count":202,
			"type":"VEC3"
		},
		{
			"bufferView":10,
			"componentType":5126,
			"count":202,
			"type":"VEC2"
		},
		{
			"bufferView":11,
			"componentType":5123,
			"count":438,
			"type":"SCALAR"
		},
		{
			"bufferView":12,
			"componentType":5126,
			"count":329,
			"max":[
				1.601898193359375,
				2.350738525390625,
				12.825149536132812
			],
			"min":[
				-1.74066162109375,
				-1.9721755981445312,
				-7.5125732421875
			],
			"type":"VEC3"
		},
		{
			"bufferView":13,
			"componentType":5126,
			"count":329,
			"type":"VEC3"
		},
		{
			"bufferView":14,
			"componentType":5126,
			"count":329,
			"type":"VEC2"
		},
		{
			"bufferView":15,
			"componentType":5123,
			"count":1020,
			"type":"SCALAR"
		},
		{
			"bufferView":16,
			"componentType":5126,
			"count":1483,
			"max":[
				4.5732197761535645,
				4.8101630210876465,
				0.4823589324951172
			],
			"min":[
				-4.263636589050293,
				-4.081323146820068,
				-0.6545028686523438
			],
			"type":"VEC3"
		},
		{
			"bufferView":17,
			"componentType":5126,
			"count":1483,
			"type":"VEC3"
		},
		{
			"bufferView":18,
			"componentType":5126,
			"count":1483,
			"type":"VEC2"
		},
		{
			"bufferView":19,
			"componentType":5123,
			"count":6123,
			"type":"SCALAR"
		},
		{
			"bufferView":20,
			"componentType":5126,
			"count":163,
			"max":[
				1.6893157958984375,
				1.7649688720703125,
				1.0301513671875
			],
			"min":[
				-1.6761322021484375,
				-1.798858642578125,
				-1.12872314453125
			],
			"type":"VEC3"
		},
		{
			"bufferView":21,
			"componentType":5126,
			"count":163,
			"type":"VEC3"
		},
		{
			"bufferView":22,
			"componentType":5126,
			"count":163,
			"type":"VEC2"
		},
		{
			"bufferView":23,
			"componentType":5123,
			"count":480,
			"type":"SCALAR"
		},
		{
			"bufferView":24,
			"componentType":5126,
			"count":1385,
			"max":[
				0.9833984375,
				3.8344497680664062,
				33.99070739746094
			],
			"min":[
				-1.12982177734375,
				-3.0491714477539062,
				-35.89558410644531
			],
			"type":"VEC3"
		},
		{
			"bufferView":25,
			"componentType":5126,
			"count":1385,
			"type":"VEC3"
		},
		{
			"bufferView":26,
			"componentType":5126,
			"count":1385,
			"type":"VEC2"
		},
		{
			"bufferView":27,
			"componentType":5123,
			"count":3720,
			"type":"SCALAR"
		}
	],
	"bufferViews":[
		{
			"buffer":0,
			"byteLength":2844,
			"byteOffset":0,
			"target":34962
		},
		{
			"buffer":0,
			"byteLength":2844,
			"byteOffset":2844,
			"target":34962
		},
		{
			"buffer":0,
			"byteLength":1896,
			"byteOffset":5688,
			"target":34962
		},
		{
			"buffer":0,
			"byteLength":1416,
			"byteOffset":7584,
			"target":34963
		},
		{
			"buffer":0,
			"byteLength":2436,
			"byteOffset":9000,
			"target":34962
		},
		{
			"buffer":0,
			"byteLength":2436,
			"byteOffset":11436,
			"target":34962
		},
		{
			"buffer":0,
			"byteLength":1624,
			"byteOffset":13872,
			"target":34962
		},
		{
			"buffer":0,
			"byteLength":936,
			"byteOffset":15496,
			"target":34963
		},
		{
			"buffer":0,
			"byteLength":2424,
			"byteOffset":16432,
			"target":34962
		},
		{
			"buffer":0,
			"byteLength":2424,
			"byteOffset":18856,
			"target":34962
		},
		{
			"buffer":0,
			"byteLength":1616,
			"byteOffset":21280,
			"target":34962
		},
		{
			"buffer":0,
			"byteLength":876,
			"byteOffset":22896,
			"target":34963
		},
		{
			"buffer":0,
			"byteLength":3948,
			"byteOffset":23772,
			"target":34962
		},
		{
			"buffer":0,
			"byteLength":3948,
			"byteOffset":27720,
			"target":34962
		},
		{
			"buffer":0,
			"byteLength":2632,
			"byteOffset":31668,
			"target":34962
		},
		{
			"buffer":0,
			"byteLength":2040,
			"byteOffset":34300,
			"target":34963
		},
		{
			"buffer":0,
			"byteLength":17796,
			"byteOffset":36340,
			"target":34962
		},
		{
			"buffer":0,
			"byteLength":17796,
			"byteOffset":54136,
			"target":34962
		},
		{
			"buffer":0,
			"byteLength":11864,
			"byteOffset":71932,
			"target":34962
		},
		{
			"buffer":0,
			"byteLength":12246,
			"byteOffset":83796,
			"target":34963
		},
		{
			"buffer":0,
			"byteLength":1956,
			"byteOffset":96044,
			"target":34962
		},
		{
			"buffer":0,
			"byteLength":1956,
			"byteOffset":98000,
			"target":34962
		},
		{
			"buffer":0,
			"byteLength":1304,
			"byteOffset":99956,
			"target":34962
		},
		{
			"buffer":0,
			"byteLength":960,
			"byteOffset":101260,
			"target":34963
		},
		{
			"buffer":0,
			"byteLength":16620,
			"byteOffset":102220,
			"target":34962
		},
		{
			"buffer":0,
			"byteLength":16620,
			"byteOffset":118840,
			"target":34962
		},
		{
			"buffer":0,
			"byteLength":11080,
			"byteOffset":135460,
			"target":34962
		},
		{
			"buffer":0,
			"byteLength":7440,
			"byteOffset":146540,
			"target":34963
		}
	],
	"samplers":[
		{
			"magFilter":9729,
			"minFilter":9987
		}
	],
	"buffers":[
		{
			"byteLength":153980,
			"uri":"scene.bin"
		}
	]
}
